{
    "asset" : {
        "generator" : "Khronos glTF Blender I/O v3.4.50",
        "version" : "2.0"
    },
    "scene" : 0,
    "scenes" : [
        {
            "name" : "Scene",
            "nodes" : [
                4
            ]
        }
    ],
    "nodes" : [
        {
            "mesh" : 0,
            "name" : "React-Logo_Material.002_0"
        },
        {
            "children" : [
                0
            ],
            "name" : "React-Logo",
            "rotation" : [
                0,
                0,
                -0.7071065902709961,
                0.7071069478988647
            ],
            "scale" : [
                39.16591262817383,
                39.16591262817383,
                52.733551025390625
            ],
            "translation" : [
                0,
                7.935468673706055,
                18.101566314697266
            ]
        },
        {
            "children" : [
                1
            ],
            "name" : "RootNode"
        },
        {
            "children" : [
                2
            ],
            "name" : "be9210d376244066bed9d265a7a3a60e.fbx",
            "rotation" : [
                0.70710688829422,
                0,
                0,
                0.7071066498756409
            ],
            "scale" : [
                0.009999999776482582,
                0.010000000707805157,
                0.010000000707805157
            ]
        },
        {
            "children" : [
                3
            ],
            "name" : "Sketchfab_model",
            "rotation" : [
                -0.70710688829422,
                0,
                0,
                0.7071066498756409
            ]
        }
    ],
    "materials" : [
        {
            "doubleSided" : true,
            "emissiveFactor" : [
                0.02390740066766739,
                0.14022019505500793,
                0.1929371953010559
            ],
            "name" : "Material.002",
            "pbrMetallicRoughness" : {
                "baseColorFactor" : [
                    0.11953700333833694,
                    0.7011010050773621,
                    0.9646859765052795,
                    1
                ],
                "metallicFactor" : 0,
                "roughnessFactor" : 0.8666204810142517
            }
        }
    ],
    "meshes" : [
        {
            "name" : "React-Logo_Material.002_0",
            "primitives" : [
                {
                    "attributes" : {
                        "POSITION" : 0,
                        "TEXCOORD_0" : 1,
                        "NORMAL" : 2
                    },
                    "indices" : 3,
                    "material" : 0
                }
            ]
        }
    ],
    "accessors" : [
        {
            "bufferView" : 0,
            "componentType" : 5126,
            "count" : 43900,
            "max" : [
                5.0055975914001465,
                5.576054573059082,
                0.4154217541217804
            ],
            "min" : [
                -4.984510898590088,
                -5.576054573059082,
                0.038673363626003265
            ],
            "type" : "VEC3"
        },
        {
            "bufferView" : 1,
            "componentType" : 5126,
            "count" : 43900,
            "type" : "VEC2"
        },
        {
            "bufferView" : 2,
            "componentType" : 5126,
            "count" : 43900,
            "type" : "VEC3"
        },
        {
            "bufferView" : 3,
            "componentType" : 5123,
            "count" : 58944,
            "type" : "SCALAR"
        }
    ],
    "bufferViews" : [
        {
            "buffer" : 0,
            "byteLength" : 526800,
            "byteOffset" : 0,
            "target" : 34962
        },
        {
            "buffer" : 0,
            "byteLength" : 351200,
            "byteOffset" : 526800,
            "target" : 34962
        },
        {
            "buffer" : 0,
            "byteLength" : 526800,
            "byteOffset" : 878000,
            "target" : 34962
        },
        {
            "buffer" : 0,
            "byteLength" : 117888,
            "byteOffset" : 1404800,
            "target" : 34963
        }
    ],
    "buffers" : [
        {
            "byteLength" : 1522688,
            "uri" : "data:application/octet-stream;base64,"
        }
    ]
}
